<?xml version="1.0" encoding="UTF-8" standalone="no"?>
<!DOCTYPE svg PUBLIC "-//W3C//DTD SVG 1.1//EN" "http://www.w3.org/Graphics/SVG/1.1/DTD/svg11.dtd">
<!-- Generated by Microsoft Visio, SVG Export guide-steps.svg Page-1 -->
<svg xmlns="http://www.w3.org/2000/svg" xmlns:xlink="http://www.w3.org/1999/xlink" xmlns:ev="http://www.w3.org/2001/xml-events"
		width="2.73459in" height="3.30123in" viewBox="0 0 196.89 237.689" xml:space="preserve" color-interpolation-filters="sRGB"
		class="st11">
	<style type="text/css">
	<![CDATA[
		.st1 {fill:#fcebdd;stroke:none;stroke-linecap:round;stroke-linejoin:round;stroke-width:0.75}
		.st2 {fill:#000000;font-family:Segoe UI;font-size:0.833336em}
		.st3 {fill:#92cddc;stroke:none;stroke-linecap:round;stroke-linejoin:round;stroke-width:0.24}
		.st4 {fill:#ffffff;stroke:#000000;stroke-linecap:round;stroke-linejoin:round;stroke-width:0.75}
		.st5 {fill:#000000;font-family:Segoe UI;font-size:0.499992em}
		.st6 {font-size:1em}
		.st7 {fill:#dbeef3;stroke:#000000;stroke-linecap:round;stroke-linejoin:round;stroke-width:0.75}
		.st8 {fill:#ebf1df;stroke:#000000;stroke-linecap:round;stroke-linejoin:round;stroke-width:0.75}
		.st9 {fill:#ffffcc;stroke:#000000;stroke-linecap:round;stroke-linejoin:round;stroke-width:0.75}
		.st10 {stroke:#000000;stroke-linecap:round;stroke-linejoin:round;stroke-width:0.75}
		.st11 {fill:none;fill-rule:evenodd;font-size:12px;overflow:visible;stroke-linecap:square;stroke-miterlimit:3}
	]]>
	</style>

	<g>
		<title>Page-1</title>
		<g id="shape71-1" transform="translate(21.8993,-181.35)">
			<title>Sheet.71</title>
			<desc>RDBMS</desc>
			<ellipse cx="34.4389" cy="209.707" rx="34.4389" ry="27.9816" class="st1"/>
			<text x="17.93" y="212.71" class="st2">RDBMS</text>		</g>
		<g id="shape72-4" transform="translate(112.301,-181.35)">
			<title>Sheet.72</title>
			<desc>NoSQL</desc>
			<ellipse cx="34.4389" cy="209.707" rx="34.4389" ry="27.9816" class="st1"/>
			<text x="18.99" y="212.71" class="st2">NoSQL</text>		</g>
		<g id="group87-7" transform="translate(36.8807,-0.375)">
			<title>Sheet.87</title>
			<g id="shape83-8" transform="translate(-218.231,127.743) rotate(-90)">
				<title>Simple Arrow.83</title>
				<path d="M0 237.69 L12 224.19 L12 230.94 L32.12 230.94 L32.12 237.69 L32.12 244.44 L12 244.44 L12 251.19 L0 237.69
							 Z" class="st3"/>
			</g>
			<g id="shape62-10" transform="translate(7.99361E-15,-137.756)">
				<title>Sheet.62</title>
				<desc>Concepts</desc>
				<ellipse cx="19.4575" cy="218.231" rx="19.4575" ry="19.4575" class="st4"/>
				<text x="7.14" y="220.03" class="st5">Concepts</text>			</g>
			<g id="shape84-13" transform="translate(-218.231,196.621) rotate(-90)">
				<title>Simple Arrow.84</title>
				<path d="M0 237.69 L12 224.19 L12 230.94 L32.12 230.94 L32.12 237.69 L32.12 244.44 L12 244.44 L12 251.19 L0 237.69
							 Z" class="st3"/>
			</g>
			<g id="shape85-15" transform="translate(7.99361E-15,-68.8778)">
				<title>Sheet.85</title>
				<desc>Solutions</desc>
				<ellipse cx="19.4575" cy="218.231" rx="19.4575" ry="19.4575" class="st4"/>
				<text x="7.21" y="220.03" class="st5">Solutions</text>			</g>
			<g id="shape86-18">
				<title>Sheet.86</title>
				<desc>Technology choices</desc>
				<ellipse cx="19.4575" cy="218.231" rx="19.4575" ry="19.4575" class="st4"/>
				<text x="4.08" y="216.43" class="st5">Technology <tspan x="9.66" dy="1.2em" class="st6">choices</tspan></text>			</g>
		</g>
		<g id="group46-22" transform="translate(0.375,-168.265)">
			<title>Sheet.46</title>
			<g id="shape14-23" transform="translate(5.34572E-14,-28.2507)">
				<title>Sheet.14</title>
				<rect x="0" y="232.038" width="7.53351" height="5.65013" class="st7"/>
			</g>
			<g id="shape15-25" transform="translate(7.53351,-28.2507)">
				<title>Sheet.15</title>
				<rect x="0" y="232.038" width="15.067" height="5.65013" class="st8"/>
			</g>
			<g id="shape16-27" transform="translate(22.6005,-28.2507)">
				<title>Sheet.16</title>
				<rect x="0" y="232.038" width="11.3003" height="5.65013" class="st8"/>
			</g>
			<g id="shape17-29" transform="translate(33.9008,-28.2507)">
				<title>Sheet.17</title>
				<rect x="0" y="232.038" width="11.3003" height="5.65013" class="st8"/>
			</g>
			<g id="shape18-31" transform="translate(5.34572E-14,-22.6005)">
				<title>Sheet.18</title>
				<rect x="0" y="232.038" width="7.53351" height="5.65013" class="st7"/>
			</g>
			<g id="shape19-33" transform="translate(7.53351,-22.6005)">
				<title>Sheet.19</title>
				<rect x="0" y="232.038" width="15.067" height="5.65013" class="st4"/>
			</g>
			<g id="shape20-35" transform="translate(22.6005,-22.6005)">
				<title>Sheet.20</title>
				<rect x="0" y="232.038" width="11.3003" height="5.65013" class="st4"/>
			</g>
			<g id="shape21-37" transform="translate(33.9008,-22.6005)">
				<title>Sheet.21</title>
				<rect x="0" y="232.038" width="11.3003" height="5.65013" class="st4"/>
			</g>
			<g id="shape30-39" transform="translate(0,-16.9504)">
				<title>Sheet.30</title>
				<rect x="0" y="232.038" width="7.53351" height="5.65013" class="st7"/>
			</g>
			<g id="shape31-41" transform="translate(7.53351,-16.9504)">
				<title>Sheet.31</title>
				<rect x="0" y="232.038" width="15.067" height="5.65013" class="st4"/>
			</g>
			<g id="shape32-43" transform="translate(22.6005,-16.9504)">
				<title>Sheet.32</title>
				<rect x="0" y="232.038" width="11.3003" height="5.65013" class="st4"/>
			</g>
			<g id="shape33-45" transform="translate(33.9008,-16.9504)">
				<title>Sheet.33</title>
				<rect x="0" y="232.038" width="11.3003" height="5.65013" class="st4"/>
			</g>
			<g id="shape34-47" transform="translate(0,-11.3003)">
				<title>Sheet.34</title>
				<rect x="0" y="232.038" width="7.53351" height="5.65013" class="st7"/>
			</g>
			<g id="shape35-49" transform="translate(7.53351,-11.3003)">
				<title>Sheet.35</title>
				<rect x="0" y="232.038" width="15.067" height="5.65013" class="st4"/>
			</g>
			<g id="shape36-51" transform="translate(22.6005,-11.3003)">
				<title>Sheet.36</title>
				<rect x="0" y="232.038" width="11.3003" height="5.65013" class="st4"/>
			</g>
			<g id="shape37-53" transform="translate(33.9008,-11.3003)">
				<title>Sheet.37</title>
				<rect x="0" y="232.038" width="11.3003" height="5.65013" class="st4"/>
			</g>
			<g id="shape38-55" transform="translate(5.34572E-14,-5.65013)">
				<title>Sheet.38</title>
				<rect x="0" y="232.038" width="7.53351" height="5.65013" class="st7"/>
			</g>
			<g id="shape39-57" transform="translate(7.53351,-5.65013)">
				<title>Sheet.39</title>
				<rect x="0" y="232.038" width="15.067" height="5.65013" class="st4"/>
			</g>
			<g id="shape40-59" transform="translate(22.6005,-5.65013)">
				<title>Sheet.40</title>
				<rect x="0" y="232.038" width="11.3003" height="5.65013" class="st4"/>
			</g>
			<g id="shape41-61" transform="translate(33.9008,-5.65013)">
				<title>Sheet.41</title>
				<rect x="0" y="232.038" width="11.3003" height="5.65013" class="st4"/>
			</g>
			<g id="shape42-63">
				<title>Sheet.42</title>
				<rect x="0" y="232.038" width="7.53351" height="5.65013" class="st7"/>
			</g>
			<g id="shape43-65" transform="translate(7.53351,-5.68434E-14)">
				<title>Sheet.43</title>
				<rect x="0" y="232.038" width="15.067" height="5.65013" class="st4"/>
			</g>
			<g id="shape44-67" transform="translate(22.6005,-1.42109E-13)">
				<title>Sheet.44</title>
				<rect x="0" y="232.038" width="11.3003" height="5.65013" class="st4"/>
			</g>
			<g id="shape45-69" transform="translate(33.9008,-1.42109E-13)">
				<title>Sheet.45</title>
				<rect x="0" y="232.038" width="11.3003" height="5.65013" class="st4"/>
			</g>
		</g>
		<g id="group88-71" transform="translate(127.283,-0.375)">
			<title>Sheet.88</title>
			<g id="shape89-72" transform="translate(-218.231,127.743) rotate(-90)">
				<title>Simple Arrow.83</title>
				<path d="M0 237.69 L12 224.19 L12 230.94 L32.12 230.94 L32.12 237.69 L32.12 244.44 L12 244.44 L12 251.19 L0 237.69
							 Z" class="st3"/>
			</g>
			<g id="shape90-74" transform="translate(7.99361E-15,-137.756)">
				<title>Sheet.90</title>
				<desc>Concepts</desc>
				<ellipse cx="19.4575" cy="218.231" rx="19.4575" ry="19.4575" class="st4"/>
				<text x="7.14" y="220.03" class="st5">Concepts</text>			</g>
			<g id="shape91-77" transform="translate(-218.231,196.621) rotate(-90)">
				<title>Simple Arrow.84</title>
				<path d="M0 237.69 L12 224.19 L12 230.94 L32.12 230.94 L32.12 237.69 L32.12 244.44 L12 244.44 L12 251.19 L0 237.69
							 Z" class="st3"/>
			</g>
			<g id="shape92-79" transform="translate(7.99361E-15,-68.8778)">
				<title>Sheet.92</title>
				<desc>Solutions</desc>
				<ellipse cx="19.4575" cy="218.231" rx="19.4575" ry="19.4575" class="st4"/>
				<text x="7.21" y="220.03" class="st5">Solutions</text>			</g>
			<g id="shape93-82">
				<title>Sheet.93</title>
				<desc>Technology choices</desc>
				<ellipse cx="19.4575" cy="218.231" rx="19.4575" ry="19.4575" class="st4"/>
				<text x="4.08" y="216.43" class="st5">Technology <tspan x="9.66" dy="1.2em" class="st6">choices</tspan></text>			</g>
		</g>
		<g id="group61-86" transform="translate(157.233,-164.131)">
			<title>Sheet.61</title>
			<g id="shape47-87" transform="translate(5.47891,-30.134)">
				<title>Sheet.47</title>
				<ellipse cx="4.57392" cy="232.98" rx="4.57392" ry="4.70844" class="st4"/>
			</g>
			<g id="shape48-89" transform="translate(0,-15.067)">
				<title>Sheet.48</title>
				<ellipse cx="4.57392" cy="232.98" rx="4.57392" ry="4.70844" class="st8"/>
			</g>
			<g id="shape49-91" transform="translate(21.5243,-17.2194)">
				<title>Sheet.49</title>
				<ellipse cx="4.57392" cy="232.98" rx="4.57392" ry="4.70844" class="st4"/>
			</g>
			<g id="shape51-93" transform="translate(15.067,0)">
				<title>Sheet.51</title>
				<ellipse cx="4.57392" cy="232.98" rx="4.57392" ry="4.70844" class="st9"/>
			</g>
			<g id="shape53-95" transform="translate(30.134,-7.80256)">
				<title>Sheet.53</title>
				<ellipse cx="4.57392" cy="232.98" rx="4.57392" ry="4.70844" class="st7"/>
			</g>
			<g id="shape54-97">
				<title>Sheet.54</title>
				<ellipse cx="4.57392" cy="232.98" rx="4.57392" ry="4.70844" class="st4"/>
			</g>
			<g id="shape55-99" transform="translate(230.286,291.026) rotate(110.697)">
				<title>Sheet.55</title>
				<path d="M0 237.69 L6.73 237.69" class="st10"/>
			</g>
			<g id="shape56-102" transform="translate(241.759,222.593) rotate(90)">
				<title>Sheet.56</title>
				<path d="M0 237.69 L5.71 237.69" class="st10"/>
			</g>
			<g id="shape57-105" transform="translate(176.291,52.685) rotate(45)">
				<title>Sheet.57</title>
				<path d="M0 237.69 L12.1 237.69" class="st10"/>
			</g>
			<g id="shape58-108" transform="translate(249.452,293.701) rotate(108.142)">
				<title>Sheet.58</title>
				<path d="M0 237.69 L9.17 237.69" class="st10"/>
			</g>
			<g id="shape60-111" transform="translate(211.275,65.876) rotate(49.9041)">
				<title>Sheet.60</title>
				<path d="M0 237.69 L3.49 237.69" class="st10"/>
			</g>
		</g>
	</g>
</svg>
